<svg width="24" height="24" viewBox="0 0 24 24" fill="none" xmlns="http://www.w3.org/2000/svg">
<path d="M12 19V20C12.5523 20 13 19.5523 13 19H12ZM20 10C20 10.5523 20.4477 11 21 11C21.5523 11 22 10.5523 22 10H20ZM13 5.5C13 4.94772 12.5523 4.5 12 4.5C11.4477 4.5 11 4.94772 11 5.5H13ZM4 17V7H2V17H4ZM12 18H5V20H12V18ZM20 7V10H22V7H20ZM13 19V5.5H11V19H13ZM5 6H19V4H5V6ZM22 7C22 5.34315 20.6569 4 19 4V6C19.5523 6 20 6.44771 20 7H22ZM4 7C4 6.44772 4.44771 6 5 6V4C3.34315 4 2 5.34314 2 7H4ZM2 17C2 18.6568 3.34315 20 5 20V18C4.44772 18 4 17.5523 4 17H2Z" fill="currentColor"/>
<path d="M20 14C20 13.4477 19.5523 13 19 13C18.4477 13 18 13.4477 18 14H20ZM18 20C18 20.5523 18.4477 21 19 21C19.5523 21 20 20.5523 20 20H18ZM16 16C15.4477 16 15 16.4477 15 17C15 17.5523 15.4477 18 16 18V16ZM22 18C22.5523 18 23 17.5523 23 17C23 16.4477 22.5523 16 22 16V18ZM18 14V17H20V14H18ZM18 17V20H20V17H18ZM16 18H19V16H16V18ZM19 18H22V16H19V18Z" fill="currentColor"/>
</svg>
