<svg width="24" height="24" viewBox="0 0 24 24" fill="none" xmlns="http://www.w3.org/2000/svg">
<path d="M12 4H7.2C6.0799 4 5.51984 4 5.09202 4.21799C4.71569 4.40973 4.40973 4.71569 4.21799 5.09202C4 5.51984 4 6.0799 4 7.2V16.8C4 17.9201 4 18.4802 4.21799 18.908C4.40973 19.2843 4.71569 19.5903 5.09202 19.782C5.51984 20 6.0799 20 7.2 20H16.8C17.9201 20 18.4802 20 18.908 19.782C19.2843 19.5903 19.5903 19.2843 19.782 18.908C20 18.4802 20 17.9201 20 16.8V12" stroke="black" stroke-width="2" stroke-linecap="round" stroke-linejoin="round"/>
<path d="M18.9847 2.4329C18.9568 2.18651 18.7485 2.00025 18.5005 2C18.2525 1.99975 18.0438 2.18557 18.0154 2.43191C17.838 3.96993 16.9699 4.83801 15.4319 5.01541C15.1856 5.04382 14.9997 5.25253 15 5.5005C15.0003 5.74847 15.1865 5.9568 15.4329 5.9847C16.9491 6.15645 17.8774 7.01617 18.0141 8.55536C18.0365 8.80725 18.2477 9.00028 18.5005 9C18.7534 8.99971 18.9642 8.80621 18.986 8.55426C19.1173 7.03683 20.0368 6.11734 21.5543 5.98599C21.8062 5.96418 21.9997 5.75344 22 5.50055C22.0003 5.24766 21.8073 5.03648 21.5554 5.01411C20.0162 4.87738 19.1564 3.94911 18.9847 2.4329Z" fill="black"/>
<path d="M8 8H12" stroke="black" stroke-width="2" stroke-linecap="round" stroke-linejoin="round"/>
<path d="M8 12H10" stroke="black" stroke-width="2" stroke-linecap="round" stroke-linejoin="round"/>
<path d="M13 12H16" stroke="black" stroke-width="2" stroke-linecap="round" stroke-linejoin="round"/>
<path d="M8 16H13" stroke="black" stroke-width="2" stroke-linecap="round" stroke-linejoin="round"/>
</svg>
