<svg width="24" height="24" viewBox="0 0 24 24" fill="none" xmlns="http://www.w3.org/2000/svg">
<path fill-rule="evenodd" clip-rule="evenodd" d="M15.1865 3C14.7642 3.36673 14.4994 3.90569 14.5 4.50195L14.5088 4.68945C14.5967 5.61565 15.3225 6.36881 16.2637 6.47559L16.4463 6.50195C16.8463 6.57317 17.0679 6.70844 17.1924 6.83008C17.3262 6.96094 17.4762 7.20083 17.5195 7.68848L17.5459 7.87793C17.7195 8.8099 18.5361 9.50095 19.502 9.5L19.6934 9.49023C20.212 9.44001 20.6741 9.18919 21 8.81445V18C21 19.6569 19.6569 21 18 21H6C4.34315 21 3 19.6569 3 18V6C3 4.34315 4.34315 3 6 3H15.1865ZM8 15.0996C7.50294 15.0996 7.09961 15.5029 7.09961 16C7.09961 16.4971 7.50294 16.9004 8 16.9004H13L13.0918 16.8955C13.5457 16.8495 13.9004 16.4661 13.9004 16C13.9004 15.5339 13.5457 15.1505 13.0918 15.1045L13 15.0996H8ZM8 11.0996C7.50294 11.0996 7.09961 11.5029 7.09961 12C7.09961 12.4971 7.50294 12.9004 8 12.9004H10L10.0918 12.8955C10.5457 12.8495 10.9004 12.4661 10.9004 12C10.9004 11.5339 10.5457 11.1505 10.0918 11.1045L10 11.0996H8ZM13 11.0996C12.5029 11.0996 12.0996 11.5029 12.0996 12C12.0996 12.4971 12.5029 12.9004 13 12.9004H16L16.0918 12.8955C16.5457 12.8495 16.9004 12.4661 16.9004 12C16.9004 11.5339 16.5457 11.1505 16.0918 11.1045L16 11.0996H13ZM8 7.09961C7.50294 7.09961 7.09961 7.50294 7.09961 8C7.09961 8.49706 7.50294 8.90039 8 8.90039H12L12.0918 8.89551C12.5457 8.84953 12.9004 8.46607 12.9004 8C12.9004 7.53393 12.5457 7.15047 12.0918 7.10449L12 7.09961H8Z" fill="black"/>
<path d="M19.9847 1.4329C19.9568 1.18651 19.7485 1.00025 19.5005 1C19.2525 0.999747 19.0438 1.18557 19.0154 1.43191C18.838 2.96993 17.9699 3.83801 16.4319 4.01541C16.1856 4.04382 15.9997 4.25253 16 4.5005C16.0003 4.74847 16.1865 4.9568 16.4329 4.9847C17.9491 5.15645 18.8774 6.01617 19.0141 7.55536C19.0365 7.80725 19.2477 8.00028 19.5005 8C19.7534 7.99971 19.9642 7.80621 19.986 7.55426C20.1173 6.03683 21.0368 5.11734 22.5543 4.98599C22.8062 4.96418 22.9997 4.75344 23 4.50055C23.0003 4.24766 22.8073 4.03648 22.5554 4.01411C21.0162 3.87738 20.1564 2.94911 19.9847 1.4329Z" fill="black"/>
</svg>
