<svg width="24" height="24" viewBox="0 0 24 24" fill="none" xmlns="http://www.w3.org/2000/svg">
<path d="M20 18.5C20 19.2537 19.5691 19.8366 19.0947 20.2373C18.6157 20.6416 17.9818 20.9605 17.2861 21.209C15.8856 21.7092 14.0166 22 12 22C9.98341 22 8.11435 21.7092 6.71387 21.209C6.01819 20.9605 5.38431 20.6417 4.90527 20.2373C4.43083 19.8366 4.00003 19.2537 4 18.5V16.5635C4.64122 17.0197 5.36025 17.3496 6.04102 17.5928C7.709 18.1885 9.81624 18.5 12 18.5C14.1838 18.5 16.291 18.1885 17.959 17.5928C18.6397 17.3496 19.3588 17.0197 20 16.5635V18.5Z" fill="currentColor"/>
<path d="M20 13C20 13.7537 19.5691 14.3366 19.0947 14.7373C18.6157 15.1416 17.9818 15.4605 17.2861 15.709C15.8856 16.2092 14.0166 16.5 12 16.5C9.98341 16.5 8.11435 16.2092 6.71387 15.709C6.01819 15.4605 5.38431 15.1417 4.90527 14.7373C4.43083 14.3366 4.00003 13.7537 4 13V11.0635C4.64122 11.5197 5.36025 11.8496 6.04102 12.0928C7.709 12.6885 9.81624 13 12 13C14.1838 13 16.291 12.6885 17.959 12.0928C18.6397 11.8496 19.3588 11.5197 20 11.0635V13Z" fill="currentColor"/>
<path fill-rule="evenodd" clip-rule="evenodd" d="M12 2C14.0165 2 15.8856 2.28989 17.2861 2.79004C17.9819 3.03852 18.6157 3.35827 19.0947 3.7627C19.5691 4.16333 20 4.74631 20 5.5V7.5H19.9844C19.9022 8.13364 19.5153 8.63214 19.0947 8.9873C18.6157 9.39173 17.9819 9.71148 17.2861 9.95996C15.8856 10.4601 14.0165 10.75 12 10.75C9.98346 10.75 8.11434 10.4601 6.71387 9.95996C6.0181 9.71148 5.38435 9.39174 4.90527 8.9873C4.48465 8.63214 4.09783 8.13364 4.01562 7.5H4V5.5C4 4.74631 4.43081 4.16333 4.90527 3.7627C5.38435 3.35826 6.0181 3.03852 6.71387 2.79004C8.11434 2.28989 9.98346 2 12 2ZM12 4C10.1507 4 8.51972 4.26922 7.38672 4.67383C6.81586 4.87771 6.42464 5.09738 6.19531 5.29102C6.07048 5.39642 6.02274 5.46681 6.00586 5.5C6.02274 5.53319 6.07048 5.60358 6.19531 5.70898C6.42464 5.90262 6.81586 6.12229 7.38672 6.32617C8.51972 6.73078 10.1507 7 12 7C13.8493 7 15.4803 6.73078 16.6133 6.32617C17.1842 6.1223 17.5753 5.90262 17.8047 5.70898C17.9295 5.60358 17.9772 5.53319 17.9941 5.5C17.9772 5.46681 17.9295 5.39642 17.8047 5.29102C17.5753 5.09738 17.1842 4.8777 16.6133 4.67383C15.4803 4.26922 13.8493 4 12 4Z" fill="currentColor"/>
</svg>
