<svg width="24" height="24" viewBox="0 0 24 24" fill="none" xmlns="http://www.w3.org/2000/svg">
<path d="M20.8466 13.2028C22.3436 13.9334 22.3436 16.0669 20.8466 16.7975L12.8768 20.6852C12.3236 20.9549 11.6771 20.9549 11.1239 20.6852L3.15417 16.7975C1.65695 16.0669 1.65695 13.9334 3.15417 13.2028L3.56921 13.0006L11.1239 16.6852C11.6771 16.9549 12.3236 16.9549 12.8768 16.6852L20.4315 13.0006L20.8466 13.2028Z" fill="currentColor"/>
<path d="M11.1239 3.31509C11.6771 3.04537 12.3236 3.04536 12.8768 3.31509L20.8466 7.20278C22.3436 7.93339 22.3437 10.0669 20.8466 10.7975L12.8768 14.6852C12.3236 14.9549 11.6771 14.9548 11.1239 14.6852L3.15417 10.7975C1.65693 10.0669 1.65696 7.93336 3.15417 7.20278L11.1239 3.31509Z" fill="currentColor"/>
</svg>
