<svg width="24" height="24" viewBox="0 0 24 24" fill="none" xmlns="http://www.w3.org/2000/svg">
<path d="M5.13261 6.12012C5.94309 6.05767 6.77703 6.36331 7.39042 6.97656L11.4998 11.0859L12.2928 10.293C12.6833 9.90248 13.3162 9.90254 13.7068 10.293C14.0973 10.6835 14.0973 11.3165 13.7068 11.707L12.9139 12.5L17.0232 16.6094C17.6365 17.2228 17.9422 18.0567 17.8797 18.8672C17.8158 19.6968 17.3604 20.4999 16.4998 20.9336C12.7514 22.8224 8.06049 22.2033 4.92851 19.0713C1.79657 15.9393 1.17835 11.2484 3.06718 7.5C3.5009 6.6396 4.30317 6.18408 5.13261 6.12012Z" fill="currentColor"/>
<path d="M11.9998 5C15.8658 5 18.9998 8.13401 18.9998 12C18.9998 12.5523 18.5521 13 17.9998 13C17.4476 13 16.9998 12.5523 16.9998 12C16.9998 9.23858 14.7613 7 11.9998 7C11.4476 7 10.9998 6.55228 10.9998 6C10.9998 5.44772 11.4476 5 11.9998 5Z" fill="currentColor"/>
<path d="M11.9998 2C17.5227 2 21.9998 6.47715 21.9998 12C21.9998 12.5523 21.5521 13 20.9998 13C20.4476 13 19.9998 12.5523 19.9998 12C19.9998 7.58172 16.4181 4 11.9998 4C11.4476 4 10.9998 3.55228 10.9998 3C10.9998 2.44772 11.4476 2 11.9998 2Z" fill="currentColor"/>
</svg>
