<svg width="24" height="24" viewBox="0 0 24 24" fill="none" xmlns="http://www.w3.org/2000/svg">
<path fill-rule="evenodd" clip-rule="evenodd" d="M5.13326 6.12012C5.94366 6.05782 6.77778 6.36332 7.39107 6.97656L11.5004 11.0859L12.2934 10.293C12.684 9.90265 13.317 9.90251 13.7075 10.293C14.0977 10.6834 14.0977 11.3166 13.7075 11.707L12.9145 12.5L17.0229 16.6084C17.6363 17.2218 17.9428 18.0566 17.8803 18.8672C17.8164 19.6966 17.3607 20.4989 16.5004 20.9326C12.7523 22.8214 8.06117 22.2031 4.92915 19.0713C1.79713 15.9393 1.17897 11.2483 3.06783 7.5C3.50154 6.63961 4.30381 6.18408 5.13326 6.12012ZM5.28658 8.11426C5.09157 8.12935 4.94383 8.22023 4.85298 8.40039C3.34134 11.4007 3.84001 15.1528 6.34322 17.6562C8.84688 20.1598 12.5997 20.6584 15.6001 19.1465C15.7801 19.0556 15.871 18.9087 15.8862 18.7139C15.9027 18.4999 15.8202 18.2341 15.6098 18.0234L5.97701 8.39062C5.76638 8.18005 5.50056 8.09789 5.28658 8.11426Z" fill="currentColor"/>
<path d="M12.0004 5C15.8662 5.00022 19.0004 8.13414 19.0004 12C19.0004 12.5521 18.5525 12.9998 18.0004 13C17.4482 13 17.0004 12.5523 17.0004 12C17.0004 9.23871 14.7617 7.00022 12.0004 7C11.4482 7 11.0004 6.55228 11.0004 6C11.0004 5.44772 11.4482 5 12.0004 5Z" fill="currentColor"/>
<path d="M12.0004 2C17.5231 2.00022 22.0004 6.4773 22.0004 12C22.0004 12.5521 21.5525 12.9998 21.0004 13C20.4482 13 20.0004 12.5523 20.0004 12C20.0004 7.58186 16.4186 4.00022 12.0004 4C11.4482 4 11.0004 3.55228 11.0004 3C11.0004 2.44772 11.4482 2 12.0004 2Z" fill="currentColor"/>
</svg>
